<svg xmlns="http://www.w3.org/2000/svg" viewBox="0 0 32 32" role="img" aria-label="Bharat Football Academy">
  <rect width="32" height="32" rx="8" fill="#1F1A55" />
  <!-- Simple trophy mark (favicon) -->
  <path
    fill="#FFFFFF"
    d="M11 10.5h10v2.1c0 3.05-2.12 5.54-5 6.1v2.1h3v2.2H13v-2.2h3v-2.1c-2.88-.56-5-3.05-5-6.1v-2.1Zm-1.7 1.9H8.4c-.44 0-.8.36-.8.8v.7c0 2.07 1.5 3.8 3.5 4.15a7.4 7.4 0 0 1-1.8-4.65v-1.05Zm14.3 0v1.05c0 1.7-.64 3.29-1.8 4.65 2-.35 3.5-2.08 3.5-4.15v-.7c0-.44-.36-.8-.8-.8h-.9Z"
  />
</svg>
